<svg width="320" height="240" viewBox="0 0 320 240" fill="none" xmlns="http://www.w3.org/2000/svg">
  <rect width="320" height="240" rx="28" fill="transparent"/>
  <g filter="url(#shadow)">
    <path d="M161 26L196 75H126L161 26Z" fill="#F4FBFB"/>
    <path d="M105 68L137 115H73L105 68Z" fill="#F4FBFB"/>
    <path d="M216 68L248 115H184L216 68Z" fill="#F4FBFB"/>
    <path d="M161 46L219 128H103L161 46Z" fill="#1E5348"/>
    <path d="M104 84L151 151H57L104 84Z" fill="#143630"/>
    <path d="M218 84L265 151H171L218 84Z" fill="#143630"/>
    <path d="M42 157C73 144 91 154 112 164C129 172 140 177 160 177C180 177 191 172 208 164C229 154 247 144 278 157V185H42V157Z" fill="#21584E"/>
    <path d="M42 157C53 148 66 140 83 138C101 136 114 141 129 150C141 157 150 161 160 161C170 161 179 157 191 150C206 141 219 136 237 138C254 140 267 148 278 157" stroke="#5DE7DB" stroke-width="6" stroke-linecap="round"/>
    <path d="M70 133V94" stroke="#F4FBFB" stroke-width="5" stroke-linecap="round"/>
    <path d="M82 137V102" stroke="#F4FBFB" stroke-width="5" stroke-linecap="round"/>
    <path d="M238 137V98" stroke="#F4FBFB" stroke-width="5" stroke-linecap="round"/>
    <path d="M250 133V92" stroke="#F4FBFB" stroke-width="5" stroke-linecap="round"/>
    <path d="M62 108L70 94L78 108H62Z" fill="#F4FBFB"/>
    <path d="M74 114L82 100L90 114H74Z" fill="#F4FBFB"/>
    <path d="M230 112L238 98L246 112H230Z" fill="#F4FBFB"/>
    <path d="M242 106L250 92L258 106H242Z" fill="#F4FBFB"/>
    <rect x="55" y="176" width="210" height="44" rx="6" fill="#111717"/>
    <path d="M55 198H265" stroke="#5DE7DB" stroke-width="3"/>
    <text x="160" y="196" text-anchor="middle" fill="#F4FBFB" font-family="Arial, sans-serif" font-size="24" font-weight="700" letter-spacing="1.2">MICHIGAN STATE</text>
    <text x="160" y="216" text-anchor="middle" fill="#F4FBFB" font-family="Arial, sans-serif" font-size="20" font-weight="700" letter-spacing="1.8">ROLEPLAY</text>
  </g>
  <defs>
    <filter id="shadow" x="25" y="18" width="270" height="214" filterUnits="userSpaceOnUse" color-interpolation-filters="sRGB">
      <feFlood flood-opacity="0" result="BackgroundImageFix"/>
      <feColorMatrix in="SourceAlpha" type="matrix" values="0 0 0 0 0 0 0 0 0 0 0 0 0 0 0 0 0 0 127 0" result="hardAlpha"/>
      <feOffset dy="8"/>
      <feGaussianBlur stdDeviation="8"/>
      <feComposite in2="hardAlpha" operator="out"/>
      <feColorMatrix type="matrix" values="0 0 0 0 0 0 0 0 0 0.07 0 0 0 0 0.07 0 0 0 0.45 0"/>
      <feBlend mode="normal" in2="BackgroundImageFix" result="effect1_dropShadow_1_9"/>
      <feBlend mode="normal" in="SourceGraphic" in2="effect1_dropShadow_1_9" result="shape"/>
    </filter>
  </defs>
</svg>
